# xmcd
#
# Track frame offsets:
#	150
#	11182
#	28675
#	49095
#	83687
#	94425
#	119075
#	138925
#	179100
#
# Disc length: 2521 seconds
#
# Revision: 0
#
# Submitted via: none 0
#
DISCID=7f09d709
DTITLE= THE_ARTIST / THE_TITLE1234567890123456789012345678901234567890123456789
DTITLE= THE_ARTIST / THE_TITLE1234567890123456789012345678901234567890123456789
DYEAR= THE_YEARxxxxx12345678901234567890123456789012345678901234567890123456789
DYEAR= THE_YEARxxxxx12345678901234567890123456789012345678901234567890123456789
DGENRE= THE_GENRExxx12345678901234567890123456789012345678901234567890123456789
DGENRE= THE_GENRExxx12345678901234567890123456789012345678901234567890123456789
TTITLE0=THE_TITLE0xx12345678901234567890123456789012345678901234567890123456789
TTITLE0=THE_TITLE0xx12345678901234567890123456789012345678901234567890123456789
TTITLE1=THE_TITLE1xx12345678901234567890123456789012345678901234567890123456789
TTITLE1=THE_TITLE1xx12345678901234567890123456789012345678901234567890123456789
TTITLE2=THE_TITLE2xx12345678901234567890123456789012345678901234567890123456789
TTITLE2=THE_TITLE2xx12345678901234567890123456789012345678901234567890123456789
TTITLE3=THE_TITLE3xx12345678901234567890123456789012345678901234567890123456789
TTITLE3=THE_TITLE3xx12345678901234567890123456789012345678901234567890123456789
TTITLE4=THE_TITLE4xx12345678901234567890123456789012345678901234567890123456789
TTITLE4=THE_TITLE4xx12345678901234567890123456789012345678901234567890123456789
TTITLE5=THE_TITLE5xx12345678901234567890123456789012345678901234567890123456789
TTITLE5=THE_TITLE5xx12345678901234567890123456789012345678901234567890123456789
TTITLE6=THE_TITLE6xx12345678901234567890123456789012345678901234567890123456789
TTITLE6=THE_TITLE6xx12345678901234567890123456789012345678901234567890123456789
TTITLE7=THE_TITLE6xx12345678901234567890123456789012345678901234567890123456789
TTITLE7=THE_TITLE6xx12345678901234567890123456789012345678901234567890123456789
TTITLE8=THE_TITLE7xx12345678901234567890123456789012345678901234567890123456789
TTITLE8=THE_TITLE7xx12345678901234567890123456789012345678901234567890123456789
EXTD=THE_EXTDxxxxxxx12345678901234567890123456789012345678901234567890123456789
EXTD=THE_EXTDxxxxxxx12345678901234567890123456789012345678901234567890123456789
EXTT0=THE_EXTT0xxxxx12345678901234567890123456789012345678901234567890123456789
EXTT0=THE_EXTT0xxxxx12345678901234567890123456789012345678901234567890123456789
EXTT1=THE_EXTT1xxxxx12345678901234567890123456789012345678901234567890123456789
EXTT1=THE_EXTT1xxxxx12345678901234567890123456789012345678901234567890123456789
EXTT2=THE_EXTT2xxxxx12345678901234567890123456789012345678901234567890123456789
EXTT2=THE_EXTT2xxxxx12345678901234567890123456789012345678901234567890123456789
EXTT3=THE_EXTT3xxxxx12345678901234567890123456789012345678901234567890123456789
EXTT3=THE_EXTT3xxxxx12345678901234567890123456789012345678901234567890123456789
EXTT4=THE_EXTT4xxxxx12345678901234567890123456789012345678901234567890123456789
EXTT4=THE_EXTT4xxxxx12345678901234567890123456789012345678901234567890123456789
EXTT5=THE_EXTT5xxxxx12345678901234567890123456789012345678901234567890123456789
EXTT5=THE_EXTT5xxxxx12345678901234567890123456789012345678901234567890123456789
EXTT6=THE_EXTT6xxxxx12345678901234567890123456789012345678901234567890123456789
EXTT6=THE_EXTT6xxxxx12345678901234567890123456789012345678901234567890123456789
EXTT7=THE_EXTT7xxxxx12345678901234567890123456789012345678901234567890123456789
EXTT7=THE_EXTT7xxxxx12345678901234567890123456789012345678901234567890123456789
EXTT8=THE_EXTT8xxxxx12345678901234567890123456789012345678901234567890123456789
EXTT8=THE_EXTT8xxxxx12345678901234567890123456789012345678901234567890123456789
PLAYORDER=
